<svg width="378" height="103" viewBox="0 0 378 103" fill="none" xmlns="http://www.w3.org/2000/svg">
<g filter="url(#filter0_d_1682_3397)">
<path d="M312.103 46.6067V79.8972L296.289 77.2727L280.476 74.9661V86.7613C298.37 96.3323 351.635 100.283 372.025 86.7613C372.025 86.7613 349.97 75.9419 345.809 70.116C345.325 69.4388 362.87 48.0611 362.87 48.0611C342.896 52.6385 320.148 49.4509 312.103 46.6067Z" fill="#3B332B"/>
<path d="M312.103 79.8972V46.6067C320.148 49.4509 342.896 52.6385 362.87 48.0611C362.87 48.0611 345.325 69.4388 345.809 70.116C349.97 75.9419 372.025 86.7613 372.025 86.7613C351.635 100.283 298.37 96.3323 280.476 86.7613M312.103 79.8972L296.289 77.2727L280.476 74.9661V86.7613M312.103 79.8972L280.476 86.7613" stroke="#FEFFED" stroke-width="1.66453"/>
<path d="M312.103 79.8972C236.747 66.7918 169.352 64.6752 96.547 74.3802V86.1392C78.6532 95.7102 25.3883 99.6614 4.99805 86.1392C4.99805 86.1392 27.0532 75.3198 31.2143 69.4939C31.698 68.8167 14.1529 47.439 14.1529 47.439C34.1273 52.0164 56.8757 48.8289 64.9209 45.9846V12.6941C183.102 -3.53506 203.076 -2.7028 311.687 12.6941L312.103 79.8972Z" fill="#3B332B"/>
<path d="M64.9209 79.2751C150.228 64.2944 225.964 64.9165 312.103 79.8972L311.687 12.6941C203.076 -2.7028 183.102 -3.53506 64.9209 12.6941V45.9846M64.9209 79.2751V45.9846M64.9209 79.2751L80.7339 76.6506L96.547 74.344V86.1392M64.9209 79.2751L96.547 86.1392M64.9209 45.9846C56.8757 48.8289 34.1273 52.0164 14.1529 47.439C14.1529 47.439 31.698 68.8167 31.2143 69.4939C27.0532 75.3198 4.99805 86.1392 4.99805 86.1392C25.3883 99.6614 78.6532 95.7102 96.547 86.1392" stroke="#FEFFED" stroke-width="1.66453"/>
</g>
<defs>
<filter id="filter0_d_1682_3397" x="-0.000925541" y="0" width="377.025" height="102.974" filterUnits="userSpaceOnUse" color-interpolation-filters="sRGB">
<feFlood flood-opacity="0" result="BackgroundImageFix"/>
<feColorMatrix in="SourceAlpha" type="matrix" values="0 0 0 0 0 0 0 0 0 0 0 0 0 0 0 0 0 0 127 0" result="hardAlpha"/>
<feOffset dy="3.32905"/>
<feGaussianBlur stdDeviation="1.66453"/>
<feComposite in2="hardAlpha" operator="out"/>
<feColorMatrix type="matrix" values="0 0 0 0 0 0 0 0 0 0 0 0 0 0 0 0 0 0 0.25 0"/>
<feBlend mode="normal" in2="BackgroundImageFix" result="effect1_dropShadow_1682_3397"/>
<feBlend mode="normal" in="SourceGraphic" in2="effect1_dropShadow_1682_3397" result="shape"/>
</filter>
</defs>
</svg>
